<?xml version="1.0" encoding="UTF-8" standalone="no"?>
<!DOCTYPE svg PUBLIC "-//W3C//DTD SVG 1.1//EN"
 "http://www.w3.org/Graphics/SVG/1.1/DTD/svg11.dtd">
<!-- Generated by graphviz version 2.38.0 (20140413.2041)
 -->
<!-- Title: controllers_diagram Pages: 1 -->
<svg width="471pt" height="571pt"
 viewBox="0.00 0.00 470.92 571.00" xmlns="http://www.w3.org/2000/svg" xmlns:xlink="http://www.w3.org/1999/xlink">
<g id="graph0" class="graph" transform="scale(1 1) rotate(0) translate(225.104 329.5)">
<title>controllers_diagram</title>
<polygon fill="none" stroke="none" points="-225.104,241.5 -225.104,-329.5 245.821,-329.5 245.821,241.5 -225.104,241.5"/>
<!-- _diagram_info -->
<g id="node1" class="node"><title>_diagram_info</title>
<text text-anchor="start" x="-93.6877" y="-212.1" font-family="Times,serif" font-size="13.00">Controllers diagram</text>
<text text-anchor="start" x="-93.6877" y="-199.1" font-family="Times,serif" font-size="13.00">Date: Aug 30 2015 &#45; 19:42</text>
<text text-anchor="start" x="-93.6877" y="-186.1" font-family="Times,serif" font-size="13.00">Migration version: 20150829212929</text>
<text text-anchor="start" x="-93.6877" y="-173.1" font-family="Times,serif" font-size="13.00">Generated by RailRoady 1.3.1</text>
<text text-anchor="start" x="-93.6877" y="-160.1" font-family="Times,serif" font-size="13.00">http://railroady.prestonlee.com</text>
</g>
<!-- ApplicationController -->
<g id="node2" class="node"><title>ApplicationController</title>
<path fill="none" stroke="black" d="M114.179,237C114.179,237 229.821,237 229.821,237 235.821,237 241.821,231 241.821,225 241.821,225 241.821,143 241.821,143 241.821,137 235.821,131 229.821,131 229.821,131 114.179,131 114.179,131 108.179,131 102.179,137 102.179,143 102.179,143 102.179,225 102.179,225 102.179,231 108.179,237 114.179,237"/>
<text text-anchor="middle" x="172" y="146.2" font-family="Times,serif" font-size="14.00">ApplicationController</text>
<polyline fill="none" stroke="black" points="102.179,153 241.821,153 "/>
<polyline fill="none" stroke="black" points="102.179,177 241.821,177 "/>
<polyline fill="none" stroke="black" points="102.179,201 241.821,201 "/>
<text text-anchor="start" x="110.179" y="216.2" font-family="Times,serif" font-size="14.00">_layout</text>
<text text-anchor="start" x="110.179" y="230.2" font-family="Times,serif" font-size="14.00">set_plans</text>
</g>
<!-- PagesController -->
<g id="node3" class="node"><title>PagesController</title>
<path fill="none" stroke="black" d="M-209.104,-35C-209.104,-35 -126.896,-35 -126.896,-35 -120.896,-35 -114.896,-41 -114.896,-47 -114.896,-47 -114.896,-113 -114.896,-113 -114.896,-119 -120.896,-125 -126.896,-125 -126.896,-125 -209.104,-125 -209.104,-125 -215.104,-125 -221.104,-119 -221.104,-113 -221.104,-113 -221.104,-47 -221.104,-47 -221.104,-41 -215.104,-35 -209.104,-35"/>
<text text-anchor="middle" x="-168" y="-109.8" font-family="Times,serif" font-size="14.00">PagesController</text>
<polyline fill="none" stroke="black" points="-221.104,-103 -114.896,-103 "/>
<text text-anchor="start" x="-213.104" y="-87.8" font-family="Times,serif" font-size="14.00">home</text>
<polyline fill="none" stroke="black" points="-221.104,-81 -114.896,-81 "/>
<polyline fill="none" stroke="black" points="-221.104,-57 -114.896,-57 "/>
<text text-anchor="start" x="-213.104" y="-41.8" font-family="Times,serif" font-size="14.00">_layout</text>
</g>
<!-- PlansController -->
<g id="node4" class="node"><title>PlansController</title>
<path fill="none" stroke="black" d="M114.059,101C114.059,101 193.941,101 193.941,101 199.941,101 205.941,95 205.941,89 205.941,89 205.941,-89 205.941,-89 205.941,-95 199.941,-101 193.941,-101 193.941,-101 114.059,-101 114.059,-101 108.059,-101 102.059,-95 102.059,-89 102.059,-89 102.059,89 102.059,89 102.059,95 108.059,101 114.059,101"/>
<text text-anchor="middle" x="154" y="-85.8" font-family="Times,serif" font-size="14.00">PlansController</text>
<polyline fill="none" stroke="black" points="102.059,-79 205.941,-79 "/>
<text text-anchor="start" x="110.059" y="-63.8" font-family="Times,serif" font-size="14.00">create</text>
<text text-anchor="start" x="110.059" y="-49.8" font-family="Times,serif" font-size="14.00">destroy</text>
<text text-anchor="start" x="110.059" y="-35.8" font-family="Times,serif" font-size="14.00">edit</text>
<text text-anchor="start" x="110.059" y="-21.8" font-family="Times,serif" font-size="14.00">index</text>
<text text-anchor="start" x="110.059" y="-7.8" font-family="Times,serif" font-size="14.00">new</text>
<text text-anchor="start" x="110.059" y="6.2" font-family="Times,serif" font-size="14.00">show</text>
<text text-anchor="start" x="110.059" y="20.2" font-family="Times,serif" font-size="14.00">update</text>
<polyline fill="none" stroke="black" points="102.059,27 205.941,27 "/>
<polyline fill="none" stroke="black" points="102.059,51 205.941,51 "/>
<text text-anchor="start" x="110.059" y="66.2" font-family="Times,serif" font-size="14.00">_layout</text>
<text text-anchor="start" x="110.059" y="80.2" font-family="Times,serif" font-size="14.00">plan_params</text>
<text text-anchor="start" x="110.059" y="94.2" font-family="Times,serif" font-size="14.00">set_plan</text>
</g>
<!-- TasksController -->
<g id="node5" class="node"><title>TasksController</title>
<path fill="none" stroke="black" d="M148.385,-137C148.385,-137 229.615,-137 229.615,-137 235.615,-137 241.615,-143 241.615,-149 241.615,-149 241.615,-313 241.615,-313 241.615,-319 235.615,-325 229.615,-325 229.615,-325 148.385,-325 148.385,-325 142.385,-325 136.385,-319 136.385,-313 136.385,-313 136.385,-149 136.385,-149 136.385,-143 142.385,-137 148.385,-137"/>
<text text-anchor="middle" x="189" y="-309.8" font-family="Times,serif" font-size="14.00">TasksController</text>
<polyline fill="none" stroke="black" points="136.385,-303 241.615,-303 "/>
<text text-anchor="start" x="144.385" y="-287.8" font-family="Times,serif" font-size="14.00">create</text>
<text text-anchor="start" x="144.385" y="-273.8" font-family="Times,serif" font-size="14.00">destroy</text>
<text text-anchor="start" x="144.385" y="-259.8" font-family="Times,serif" font-size="14.00">edit_modal</text>
<text text-anchor="start" x="144.385" y="-245.8" font-family="Times,serif" font-size="14.00">sort_inbox</text>
<text text-anchor="start" x="144.385" y="-231.8" font-family="Times,serif" font-size="14.00">sort_positioned</text>
<text text-anchor="start" x="144.385" y="-217.8" font-family="Times,serif" font-size="14.00">update</text>
<polyline fill="none" stroke="black" points="136.385,-211 241.615,-211 "/>
<polyline fill="none" stroke="black" points="136.385,-187 241.615,-187 "/>
<text text-anchor="start" x="144.385" y="-171.8" font-family="Times,serif" font-size="14.00">_layout</text>
<text text-anchor="start" x="144.385" y="-157.8" font-family="Times,serif" font-size="14.00">set_task</text>
<text text-anchor="start" x="144.385" y="-143.8" font-family="Times,serif" font-size="14.00">task_params</text>
</g>
<!-- TasksWizardController -->
<g id="node6" class="node"><title>TasksWizardController</title>
<path fill="none" stroke="black" d="M-72.9346,118C-72.9346,118 48.9346,118 48.9346,118 54.9346,118 60.9346,112 60.9346,106 60.9346,106 60.9346,-100 60.9346,-100 60.9346,-106 54.9346,-112 48.9346,-112 48.9346,-112 -72.9346,-112 -72.9346,-112 -78.9346,-112 -84.9346,-106 -84.9346,-100 -84.9346,-100 -84.9346,106 -84.9346,106 -84.9346,112 -78.9346,118 -72.9346,118"/>
<text text-anchor="middle" x="-12" y="-96.8" font-family="Times,serif" font-size="14.00">TasksWizardController</text>
<polyline fill="none" stroke="black" points="-84.9346,-90 60.9346,-90 "/>
<text text-anchor="start" x="-76.9346" y="-74.8" font-family="Times,serif" font-size="14.00">assign</text>
<text text-anchor="start" x="-76.9346" y="-60.8" font-family="Times,serif" font-size="14.00">assign_update</text>
<text text-anchor="start" x="-76.9346" y="-46.8" font-family="Times,serif" font-size="14.00">create_role</text>
<text text-anchor="start" x="-76.9346" y="-32.8" font-family="Times,serif" font-size="14.00">create_task</text>
<text text-anchor="start" x="-76.9346" y="-18.8" font-family="Times,serif" font-size="14.00">include</text>
<text text-anchor="start" x="-76.9346" y="-4.8" font-family="Times,serif" font-size="14.00">list</text>
<text text-anchor="start" x="-76.9346" y="9.2" font-family="Times,serif" font-size="14.00">position</text>
<text text-anchor="start" x="-76.9346" y="23.2" font-family="Times,serif" font-size="14.00">preparation</text>
<text text-anchor="start" x="-76.9346" y="37.2" font-family="Times,serif" font-size="14.00">rate</text>
<text text-anchor="start" x="-76.9346" y="51.2" font-family="Times,serif" font-size="14.00">rate_update</text>
<polyline fill="none" stroke="black" points="-84.9346,58 60.9346,58 "/>
<polyline fill="none" stroke="black" points="-84.9346,82 60.9346,82 "/>
<text text-anchor="start" x="-76.9346" y="97.2" font-family="Times,serif" font-size="14.00">_layout</text>
<text text-anchor="start" x="-76.9346" y="111.2" font-family="Times,serif" font-size="14.00">task_params</text>
</g>
</g>
</svg>
