<?xml version="1.0" encoding="UTF-8" standalone="no"?>
<!DOCTYPE svg PUBLIC "-//W3C//DTD SVG 1.1//EN"
 "http://www.w3.org/Graphics/SVG/1.1/DTD/svg11.dtd">
<!-- Generated by graphviz version 2.38.0 (20140413.2041)
 -->
<!-- Title: controllers_diagram Pages: 1 -->
<svg width="468pt" height="565pt"
 viewBox="0.00 0.00 467.51 565.00" xmlns="http://www.w3.org/2000/svg" xmlns:xlink="http://www.w3.org/1999/xlink">
<g id="graph0" class="graph" transform="scale(1 1) rotate(0) translate(99.6877 337.5)">
<title>controllers_diagram</title>
<polygon fill="none" stroke="none" points="-99.6877,227.5 -99.6877,-337.5 367.821,-337.5 367.821,227.5 -99.6877,227.5"/>
<!-- _diagram_info -->
<g id="node1" class="node"><title>_diagram_info</title>
<text text-anchor="start" x="-87.6877" y="-203.1" font-family="Times,serif" font-size="13.00">Controllers diagram</text>
<text text-anchor="start" x="-87.6877" y="-190.1" font-family="Times,serif" font-size="13.00">Date: Aug 29 2015 &#45; 18:11</text>
<text text-anchor="start" x="-87.6877" y="-177.1" font-family="Times,serif" font-size="13.00">Migration version: 20150829212929</text>
<text text-anchor="start" x="-87.6877" y="-164.1" font-family="Times,serif" font-size="13.00">Generated by RailRoady 1.3.1</text>
<text text-anchor="start" x="-87.6877" y="-151.1" font-family="Times,serif" font-size="13.00">http://railroady.prestonlee.com</text>
</g>
<!-- ApplicationController -->
<g id="node2" class="node"><title>ApplicationController</title>
<path fill="none" stroke="black" d="M236.179,223C236.179,223 351.821,223 351.821,223 357.821,223 363.821,217 363.821,211 363.821,211 363.821,129 363.821,129 363.821,123 357.821,117 351.821,117 351.821,117 236.179,117 236.179,117 230.179,117 224.179,123 224.179,129 224.179,129 224.179,211 224.179,211 224.179,217 230.179,223 236.179,223"/>
<text text-anchor="middle" x="294" y="132.2" font-family="Times,serif" font-size="14.00">ApplicationController</text>
<polyline fill="none" stroke="black" points="224.179,139 363.821,139 "/>
<polyline fill="none" stroke="black" points="224.179,163 363.821,163 "/>
<polyline fill="none" stroke="black" points="224.179,187 363.821,187 "/>
<text text-anchor="start" x="232.179" y="202.2" font-family="Times,serif" font-size="14.00">_layout</text>
<text text-anchor="start" x="232.179" y="216.2" font-family="Times,serif" font-size="14.00">set_plans</text>
</g>
<!-- PagesController -->
<g id="node3" class="node"><title>PagesController</title>
<path fill="none" stroke="black" d="M235.896,79C235.896,79 318.104,79 318.104,79 324.104,79 330.104,73 330.104,67 330.104,67 330.104,1 330.104,1 330.104,-5 324.104,-11 318.104,-11 318.104,-11 235.896,-11 235.896,-11 229.896,-11 223.896,-5 223.896,1 223.896,1 223.896,67 223.896,67 223.896,73 229.896,79 235.896,79"/>
<text text-anchor="middle" x="277" y="4.2" font-family="Times,serif" font-size="14.00">PagesController</text>
<polyline fill="none" stroke="black" points="223.896,11 330.104,11 "/>
<text text-anchor="start" x="231.896" y="26.2" font-family="Times,serif" font-size="14.00">home</text>
<polyline fill="none" stroke="black" points="223.896,33 330.104,33 "/>
<polyline fill="none" stroke="black" points="223.896,57 330.104,57 "/>
<text text-anchor="start" x="231.896" y="72.2" font-family="Times,serif" font-size="14.00">_layout</text>
</g>
<!-- PlansController -->
<g id="node4" class="node"><title>PlansController</title>
<path fill="none" stroke="black" d="M108.059,95C108.059,95 187.941,95 187.941,95 193.941,95 199.941,89 199.941,83 199.941,83 199.941,-95 199.941,-95 199.941,-101 193.941,-107 187.941,-107 187.941,-107 108.059,-107 108.059,-107 102.059,-107 96.0586,-101 96.0586,-95 96.0586,-95 96.0586,83 96.0586,83 96.0586,89 102.059,95 108.059,95"/>
<text text-anchor="middle" x="148" y="-91.8" font-family="Times,serif" font-size="14.00">PlansController</text>
<polyline fill="none" stroke="black" points="96.0586,-85 199.941,-85 "/>
<text text-anchor="start" x="104.059" y="-69.8" font-family="Times,serif" font-size="14.00">create</text>
<text text-anchor="start" x="104.059" y="-55.8" font-family="Times,serif" font-size="14.00">destroy</text>
<text text-anchor="start" x="104.059" y="-41.8" font-family="Times,serif" font-size="14.00">edit</text>
<text text-anchor="start" x="104.059" y="-27.8" font-family="Times,serif" font-size="14.00">index</text>
<text text-anchor="start" x="104.059" y="-13.8" font-family="Times,serif" font-size="14.00">new</text>
<text text-anchor="start" x="104.059" y="0.2" font-family="Times,serif" font-size="14.00">show</text>
<text text-anchor="start" x="104.059" y="14.2" font-family="Times,serif" font-size="14.00">update</text>
<polyline fill="none" stroke="black" points="96.0586,21 199.941,21 "/>
<polyline fill="none" stroke="black" points="96.0586,45 199.941,45 "/>
<text text-anchor="start" x="104.059" y="60.2" font-family="Times,serif" font-size="14.00">_layout</text>
<text text-anchor="start" x="104.059" y="74.2" font-family="Times,serif" font-size="14.00">plan_params</text>
<text text-anchor="start" x="104.059" y="88.2" font-family="Times,serif" font-size="14.00">set_plan</text>
</g>
<!-- TasksController -->
<g id="node5" class="node"><title>TasksController</title>
<path fill="none" stroke="black" d="M156.385,-145C156.385,-145 237.615,-145 237.615,-145 243.615,-145 249.615,-151 249.615,-157 249.615,-157 249.615,-321 249.615,-321 249.615,-327 243.615,-333 237.615,-333 237.615,-333 156.385,-333 156.385,-333 150.385,-333 144.385,-327 144.385,-321 144.385,-321 144.385,-157 144.385,-157 144.385,-151 150.385,-145 156.385,-145"/>
<text text-anchor="middle" x="197" y="-317.8" font-family="Times,serif" font-size="14.00">TasksController</text>
<polyline fill="none" stroke="black" points="144.385,-311 249.615,-311 "/>
<text text-anchor="start" x="152.385" y="-295.8" font-family="Times,serif" font-size="14.00">create</text>
<text text-anchor="start" x="152.385" y="-281.8" font-family="Times,serif" font-size="14.00">destroy</text>
<text text-anchor="start" x="152.385" y="-267.8" font-family="Times,serif" font-size="14.00">edit_modal</text>
<text text-anchor="start" x="152.385" y="-253.8" font-family="Times,serif" font-size="14.00">sort_inbox</text>
<text text-anchor="start" x="152.385" y="-239.8" font-family="Times,serif" font-size="14.00">sort_positioned</text>
<text text-anchor="start" x="152.385" y="-225.8" font-family="Times,serif" font-size="14.00">update</text>
<polyline fill="none" stroke="black" points="144.385,-219 249.615,-219 "/>
<polyline fill="none" stroke="black" points="144.385,-195 249.615,-195 "/>
<text text-anchor="start" x="152.385" y="-179.8" font-family="Times,serif" font-size="14.00">_layout</text>
<text text-anchor="start" x="152.385" y="-165.8" font-family="Times,serif" font-size="14.00">set_task</text>
<text text-anchor="start" x="152.385" y="-151.8" font-family="Times,serif" font-size="14.00">task_params</text>
</g>
<!-- TasksWizardController -->
<g id="node6" class="node"><title>TasksWizardController</title>
<path fill="none" stroke="black" d="M-67.9346,111C-67.9346,111 53.9346,111 53.9346,111 59.9346,111 65.9346,105 65.9346,99 65.9346,99 65.9346,-93 65.9346,-93 65.9346,-99 59.9346,-105 53.9346,-105 53.9346,-105 -67.9346,-105 -67.9346,-105 -73.9346,-105 -79.9346,-99 -79.9346,-93 -79.9346,-93 -79.9346,99 -79.9346,99 -79.9346,105 -73.9346,111 -67.9346,111"/>
<text text-anchor="middle" x="-7" y="-89.8" font-family="Times,serif" font-size="14.00">TasksWizardController</text>
<polyline fill="none" stroke="black" points="-79.9346,-83 65.9346,-83 "/>
<text text-anchor="start" x="-71.9346" y="-67.8" font-family="Times,serif" font-size="14.00">assign</text>
<text text-anchor="start" x="-71.9346" y="-53.8" font-family="Times,serif" font-size="14.00">assign_update</text>
<text text-anchor="start" x="-71.9346" y="-39.8" font-family="Times,serif" font-size="14.00">create_task</text>
<text text-anchor="start" x="-71.9346" y="-25.8" font-family="Times,serif" font-size="14.00">include</text>
<text text-anchor="start" x="-71.9346" y="-11.8" font-family="Times,serif" font-size="14.00">list</text>
<text text-anchor="start" x="-71.9346" y="2.2" font-family="Times,serif" font-size="14.00">position</text>
<text text-anchor="start" x="-71.9346" y="16.2" font-family="Times,serif" font-size="14.00">preparation</text>
<text text-anchor="start" x="-71.9346" y="30.2" font-family="Times,serif" font-size="14.00">rate</text>
<text text-anchor="start" x="-71.9346" y="44.2" font-family="Times,serif" font-size="14.00">rate_update</text>
<polyline fill="none" stroke="black" points="-79.9346,51 65.9346,51 "/>
<polyline fill="none" stroke="black" points="-79.9346,75 65.9346,75 "/>
<text text-anchor="start" x="-71.9346" y="90.2" font-family="Times,serif" font-size="14.00">_layout</text>
<text text-anchor="start" x="-71.9346" y="104.2" font-family="Times,serif" font-size="14.00">task_params</text>
</g>
</g>
</svg>
