<?xml version="1.0" encoding="UTF-8" standalone="no"?>
<!DOCTYPE svg PUBLIC "-//W3C//DTD SVG 1.1//EN"
 "http://www.w3.org/Graphics/SVG/1.1/DTD/svg11.dtd">
<!-- Generated by graphviz version 2.38.0 (20140413.2041)
 -->
<!-- Title: models_diagram Pages: 1 -->
<svg width="449pt" height="1035pt"
 viewBox="0.00 0.00 449.19 1035.00" xmlns="http://www.w3.org/2000/svg" xmlns:xlink="http://www.w3.org/1999/xlink">
<g id="graph0" class="graph" transform="scale(1 1) rotate(0) translate(4 1031)">
<title>models_diagram</title>
<polygon fill="none" stroke="none" points="-4,4 -4,-1031 445.193,-1031 445.193,4 -4,4"/>
<!-- _diagram_info -->
<g id="node1" class="node"><title>_diagram_info</title>
<text text-anchor="start" x="8" y="-914.6" font-family="Times,serif" font-size="13.00">Models diagram</text>
<text text-anchor="start" x="8" y="-901.6" font-family="Times,serif" font-size="13.00">Date: Aug 31 2015 &#45; 11:12</text>
<text text-anchor="start" x="8" y="-888.6" font-family="Times,serif" font-size="13.00">Migration version: 20150829212929</text>
<text text-anchor="start" x="8" y="-875.6" font-family="Times,serif" font-size="13.00">Generated by RailRoady 1.3.1</text>
<text text-anchor="start" x="8" y="-862.6" font-family="Times,serif" font-size="13.00">http://railroady.prestonlee.com</text>
</g>
<!-- Need -->
<g id="node2" class="node"><title>Need</title>
<path fill="none" stroke="black" d="M178.182,-0.5C178.182,-0.5 287.193,-0.5 287.193,-0.5 293.193,-0.5 299.193,-6.5 299.193,-12.5 299.193,-12.5 299.193,-130.5 299.193,-130.5 299.193,-136.5 293.193,-142.5 287.193,-142.5 287.193,-142.5 178.182,-142.5 178.182,-142.5 172.182,-142.5 166.182,-136.5 166.182,-130.5 166.182,-130.5 166.182,-12.5 166.182,-12.5 166.182,-6.5 172.182,-0.5 178.182,-0.5"/>
<text text-anchor="middle" x="232.688" y="-127.3" font-family="Times,serif" font-size="14.00">Need</text>
<polyline fill="none" stroke="black" points="166.182,-120.5 299.193,-120.5 "/>
<text text-anchor="start" x="174.182" y="-105.3" font-family="Times,serif" font-size="14.00">id :integer</text>
<text text-anchor="start" x="174.182" y="-91.3" font-family="Times,serif" font-size="14.00">resource :string</text>
<text text-anchor="start" x="174.182" y="-77.3" font-family="Times,serif" font-size="14.00">notes :text</text>
<text text-anchor="start" x="174.182" y="-63.3" font-family="Times,serif" font-size="14.00">complete :boolean</text>
<text text-anchor="start" x="174.182" y="-49.3" font-family="Times,serif" font-size="14.00">position :integer</text>
<text text-anchor="start" x="174.182" y="-35.3" font-family="Times,serif" font-size="14.00">task_id :integer</text>
<text text-anchor="start" x="174.182" y="-21.3" font-family="Times,serif" font-size="14.00">created_at :datetime</text>
<text text-anchor="start" x="174.182" y="-7.3" font-family="Times,serif" font-size="14.00">updated_at :datetime</text>
</g>
<!-- Plan -->
<g id="node3" class="node"><title>Plan</title>
<path fill="none" stroke="black" d="M273.182,-607.5C273.182,-607.5 382.193,-607.5 382.193,-607.5 388.193,-607.5 394.193,-613.5 394.193,-619.5 394.193,-619.5 394.193,-709.5 394.193,-709.5 394.193,-715.5 388.193,-721.5 382.193,-721.5 382.193,-721.5 273.182,-721.5 273.182,-721.5 267.182,-721.5 261.182,-715.5 261.182,-709.5 261.182,-709.5 261.182,-619.5 261.182,-619.5 261.182,-613.5 267.182,-607.5 273.182,-607.5"/>
<text text-anchor="middle" x="327.688" y="-706.3" font-family="Times,serif" font-size="14.00">Plan</text>
<polyline fill="none" stroke="black" points="261.182,-699.5 394.193,-699.5 "/>
<text text-anchor="start" x="269.182" y="-684.3" font-family="Times,serif" font-size="14.00">id :integer</text>
<text text-anchor="start" x="269.182" y="-670.3" font-family="Times,serif" font-size="14.00">name :string</text>
<text text-anchor="start" x="269.182" y="-656.3" font-family="Times,serif" font-size="14.00">position :integer</text>
<text text-anchor="start" x="269.182" y="-642.3" font-family="Times,serif" font-size="14.00">user_id :integer</text>
<text text-anchor="start" x="269.182" y="-628.3" font-family="Times,serif" font-size="14.00">created_at :datetime</text>
<text text-anchor="start" x="269.182" y="-614.3" font-family="Times,serif" font-size="14.00">updated_at :datetime</text>
</g>
<!-- Plan&#45;&gt;Need -->
<g id="edge3" class="edge"><title>Plan&#45;&gt;Need</title>
<path fill="none" stroke="#1008a7" d="M266.425,-599.088C260.528,-590.17 255.378,-580.718 251.688,-571 198.699,-431.47 208.441,-253.896 220.469,-152.727"/>
<polygon fill="#1008a7" stroke="#1008a7" points="266.554,-599.272 268.598,-610.046 269.42,-603.369 272.286,-607.467 272.286,-607.467 272.286,-607.467 269.42,-603.369 275.973,-604.887 266.554,-599.272 266.554,-599.272"/>
<polygon fill="#1008a7" stroke="#1008a7" points="220.497,-152.504 226.181,-143.126 221.105,-147.541 221.714,-142.578 221.714,-142.578 221.714,-142.578 221.105,-147.541 217.248,-142.03 220.497,-152.504 220.497,-152.504"/>
</g>
<!-- Role -->
<g id="node4" class="node"><title>Role</title>
<path fill="none" stroke="black" d="M273.182,-414.5C273.182,-414.5 382.193,-414.5 382.193,-414.5 388.193,-414.5 394.193,-420.5 394.193,-426.5 394.193,-426.5 394.193,-558.5 394.193,-558.5 394.193,-564.5 388.193,-570.5 382.193,-570.5 382.193,-570.5 273.182,-570.5 273.182,-570.5 267.182,-570.5 261.182,-564.5 261.182,-558.5 261.182,-558.5 261.182,-426.5 261.182,-426.5 261.182,-420.5 267.182,-414.5 273.182,-414.5"/>
<text text-anchor="middle" x="327.688" y="-555.3" font-family="Times,serif" font-size="14.00">Role</text>
<polyline fill="none" stroke="black" points="261.182,-548.5 394.193,-548.5 "/>
<text text-anchor="start" x="269.182" y="-533.3" font-family="Times,serif" font-size="14.00">id :integer</text>
<text text-anchor="start" x="269.182" y="-519.3" font-family="Times,serif" font-size="14.00">doer :string</text>
<text text-anchor="start" x="269.182" y="-505.3" font-family="Times,serif" font-size="14.00">specific :boolean</text>
<text text-anchor="start" x="269.182" y="-491.3" font-family="Times,serif" font-size="14.00">title :string</text>
<text text-anchor="start" x="269.182" y="-477.3" font-family="Times,serif" font-size="14.00">full_name :string</text>
<text text-anchor="start" x="269.182" y="-463.3" font-family="Times,serif" font-size="14.00">email :string</text>
<text text-anchor="start" x="269.182" y="-449.3" font-family="Times,serif" font-size="14.00">plan_id :integer</text>
<text text-anchor="start" x="269.182" y="-435.3" font-family="Times,serif" font-size="14.00">created_at :datetime</text>
<text text-anchor="start" x="269.182" y="-421.3" font-family="Times,serif" font-size="14.00">updated_at :datetime</text>
</g>
<!-- Plan&#45;&gt;Role -->
<g id="edge2" class="edge"><title>Plan&#45;&gt;Role</title>
<path fill="none" stroke="#dd4bce" d="M327.688,-599.228C327.688,-593.22 327.688,-587.064 327.688,-580.892"/>
<ellipse fill="none" stroke="#dd4bce" cx="327.688" cy="-603.365" rx="4" ry="4"/>
<polygon fill="#dd4bce" stroke="#dd4bce" points="327.688,-580.513 332.188,-570.513 327.688,-575.513 327.688,-570.513 327.688,-570.513 327.688,-570.513 327.688,-575.513 323.188,-570.513 327.688,-580.513 327.688,-580.513"/>
</g>
<!-- Task -->
<g id="node5" class="node"><title>Task</title>
<path fill="none" stroke="black" d="M320.182,-179.5C320.182,-179.5 429.193,-179.5 429.193,-179.5 435.193,-179.5 441.193,-185.5 441.193,-191.5 441.193,-191.5 441.193,-365.5 441.193,-365.5 441.193,-371.5 435.193,-377.5 429.193,-377.5 429.193,-377.5 320.182,-377.5 320.182,-377.5 314.182,-377.5 308.182,-371.5 308.182,-365.5 308.182,-365.5 308.182,-191.5 308.182,-191.5 308.182,-185.5 314.182,-179.5 320.182,-179.5"/>
<text text-anchor="middle" x="374.688" y="-362.3" font-family="Times,serif" font-size="14.00">Task</text>
<polyline fill="none" stroke="black" points="308.182,-355.5 441.193,-355.5 "/>
<text text-anchor="start" x="316.182" y="-340.3" font-family="Times,serif" font-size="14.00">id :integer</text>
<text text-anchor="start" x="316.182" y="-326.3" font-family="Times,serif" font-size="14.00">deed :string</text>
<text text-anchor="start" x="316.182" y="-312.3" font-family="Times,serif" font-size="14.00">description :text</text>
<text text-anchor="start" x="316.182" y="-298.3" font-family="Times,serif" font-size="14.00">priority :integer</text>
<text text-anchor="start" x="316.182" y="-284.3" font-family="Times,serif" font-size="14.00">position :integer</text>
<text text-anchor="start" x="316.182" y="-270.3" font-family="Times,serif" font-size="14.00">included :boolean</text>
<text text-anchor="start" x="316.182" y="-256.3" font-family="Times,serif" font-size="14.00">inbox :boolean</text>
<text text-anchor="start" x="316.182" y="-242.3" font-family="Times,serif" font-size="14.00">minutes :integer</text>
<text text-anchor="start" x="316.182" y="-228.3" font-family="Times,serif" font-size="14.00">plan_id :integer</text>
<text text-anchor="start" x="316.182" y="-214.3" font-family="Times,serif" font-size="14.00">role_id :integer</text>
<text text-anchor="start" x="316.182" y="-200.3" font-family="Times,serif" font-size="14.00">created_at :datetime</text>
<text text-anchor="start" x="316.182" y="-186.3" font-family="Times,serif" font-size="14.00">updated_at :datetime</text>
</g>
<!-- Plan&#45;&gt;Task -->
<g id="edge1" class="edge"><title>Plan&#45;&gt;Task</title>
<path fill="none" stroke="#546e41" d="M388.362,-600.66C394.6,-591.301 399.994,-581.313 403.688,-571 424.595,-512.621 419.008,-443.726 407.421,-387.575"/>
<ellipse fill="none" stroke="#546e41" cx="385.973" cy="-604.08" rx="4.00002" ry="4.00002"/>
<polygon fill="#546e41" stroke="#546e41" points="407.379,-387.38 409.673,-376.656 406.327,-382.492 405.274,-377.604 405.274,-377.604 405.274,-377.604 406.327,-382.492 400.875,-378.551 407.379,-387.38 407.379,-387.38"/>
</g>
<!-- Role&#45;&gt;Task -->
<g id="edge4" class="edge"><title>Role&#45;&gt;Task</title>
<path fill="none" stroke="#316961" d="M346.544,-406.447C347.926,-400.214 349.33,-393.881 350.736,-387.537"/>
<ellipse fill="none" stroke="#316961" cx="345.655" cy="-410.458" rx="4.00001" ry="4.00001"/>
<polygon fill="#316961" stroke="#316961" points="350.78,-387.337 357.338,-378.548 351.863,-382.456 352.945,-377.574 352.945,-377.574 352.945,-377.574 351.863,-382.456 348.552,-376.6 350.78,-387.337 350.78,-387.337"/>
</g>
<!-- Task&#45;&gt;Need -->
<g id="edge5" class="edge"><title>Task&#45;&gt;Need</title>
<path fill="none" stroke="#4f6b01" d="M303.404,-174.59C297.917,-166.669 292.432,-158.75 287.081,-151.025"/>
<ellipse fill="none" stroke="#4f6b01" cx="305.776" cy="-178.014" rx="4.00002" ry="4.00002"/>
<polygon fill="#4f6b01" stroke="#4f6b01" points="287.026,-150.947 285.031,-140.164 284.179,-146.836 281.332,-142.726 281.332,-142.726 281.332,-142.726 284.179,-146.836 277.633,-145.289 287.026,-150.947 287.026,-150.947"/>
</g>
<!-- User -->
<g id="node6" class="node"><title>User</title>
<path fill="none" stroke="black" d="M237.41,-758.5C237.41,-758.5 417.966,-758.5 417.966,-758.5 423.966,-758.5 429.966,-764.5 429.966,-770.5 429.966,-770.5 429.966,-1014.5 429.966,-1014.5 429.966,-1020.5 423.966,-1026.5 417.966,-1026.5 417.966,-1026.5 237.41,-1026.5 237.41,-1026.5 231.41,-1026.5 225.41,-1020.5 225.41,-1014.5 225.41,-1014.5 225.41,-770.5 225.41,-770.5 225.41,-764.5 231.41,-758.5 237.41,-758.5"/>
<text text-anchor="middle" x="327.688" y="-1011.3" font-family="Times,serif" font-size="14.00">User</text>
<polyline fill="none" stroke="black" points="225.41,-1004.5 429.966,-1004.5 "/>
<text text-anchor="start" x="233.41" y="-989.3" font-family="Times,serif" font-size="14.00">id :integer</text>
<text text-anchor="start" x="233.41" y="-975.3" font-family="Times,serif" font-size="14.00">email :string</text>
<text text-anchor="start" x="233.41" y="-961.3" font-family="Times,serif" font-size="14.00">encrypted_password :string</text>
<text text-anchor="start" x="233.41" y="-947.3" font-family="Times,serif" font-size="14.00">reset_password_token :string</text>
<text text-anchor="start" x="233.41" y="-933.3" font-family="Times,serif" font-size="14.00">reset_password_sent_at :datetime</text>
<text text-anchor="start" x="233.41" y="-919.3" font-family="Times,serif" font-size="14.00">remember_created_at :datetime</text>
<text text-anchor="start" x="233.41" y="-905.3" font-family="Times,serif" font-size="14.00">sign_in_count :integer</text>
<text text-anchor="start" x="233.41" y="-891.3" font-family="Times,serif" font-size="14.00">current_sign_in_at :datetime</text>
<text text-anchor="start" x="233.41" y="-877.3" font-family="Times,serif" font-size="14.00">last_sign_in_at :datetime</text>
<text text-anchor="start" x="233.41" y="-863.3" font-family="Times,serif" font-size="14.00">current_sign_in_ip :inet</text>
<text text-anchor="start" x="233.41" y="-849.3" font-family="Times,serif" font-size="14.00">last_sign_in_ip :inet</text>
<text text-anchor="start" x="233.41" y="-835.3" font-family="Times,serif" font-size="14.00">first_name :string</text>
<text text-anchor="start" x="233.41" y="-821.3" font-family="Times,serif" font-size="14.00">last_name :string</text>
<text text-anchor="start" x="233.41" y="-807.3" font-family="Times,serif" font-size="14.00">organization :string</text>
<text text-anchor="start" x="233.41" y="-793.3" font-family="Times,serif" font-size="14.00">admin :boolean</text>
<text text-anchor="start" x="233.41" y="-779.3" font-family="Times,serif" font-size="14.00">created_at :datetime</text>
<text text-anchor="start" x="233.41" y="-765.3" font-family="Times,serif" font-size="14.00">updated_at :datetime</text>
</g>
<!-- User&#45;&gt;Need -->
<g id="edge8" class="edge"><title>User&#45;&gt;Need</title>
<path fill="none" stroke="#1a2049" d="M261.67,-748.8C258.137,-739.793 254.775,-730.809 251.688,-722 171.61,-493.539 181.913,-419.604 208.688,-179 209.647,-170.378 211.031,-161.434 212.656,-152.559"/>
<polygon fill="#1a2049" stroke="#1a2049" points="261.709,-748.898 261.229,-759.854 263.559,-753.543 265.41,-758.188 265.41,-758.188 265.41,-758.188 263.559,-753.543 269.59,-756.523 261.709,-748.898 261.709,-748.898"/>
<polygon fill="#1a2049" stroke="#1a2049" points="212.686,-152.408 219.003,-143.444 213.635,-147.499 214.585,-142.59 214.585,-142.59 214.585,-142.59 213.635,-147.499 210.166,-141.735 212.686,-152.408 212.686,-152.408"/>
</g>
<!-- User&#45;&gt;Plan -->
<g id="edge6" class="edge"><title>User&#45;&gt;Plan</title>
<path fill="none" stroke="#b122ab" d="M327.688,-750.33C327.688,-744.087 327.688,-737.967 327.688,-732.052"/>
<ellipse fill="none" stroke="#b122ab" cx="327.688" cy="-754.401" rx="4" ry="4"/>
<polygon fill="#b122ab" stroke="#b122ab" points="327.688,-731.645 332.188,-721.645 327.688,-726.645 327.688,-721.645 327.688,-721.645 327.688,-721.645 327.688,-726.645 323.188,-721.645 327.688,-731.645 327.688,-731.645"/>
</g>
<!-- User&#45;&gt;Task -->
<g id="edge7" class="edge"><title>User&#45;&gt;Task</title>
<path fill="none" stroke="#f2434e" d="M395.133,-748.55C398.28,-739.659 401.169,-730.763 403.688,-722 441.585,-590.131 448.976,-549.04 424.688,-414 423.101,-405.177 420.972,-396.177 418.485,-387.224"/>
<polygon fill="#f2434e" stroke="#f2434e" points="395.044,-748.793 387.393,-756.649 393.333,-753.491 391.622,-758.189 391.622,-758.189 391.622,-758.189 393.333,-753.491 395.85,-759.729 395.044,-748.793 395.044,-748.793"/>
<polygon fill="#f2434e" stroke="#f2434e" points="418.46,-387.137 419.974,-376.276 417.058,-382.338 415.655,-377.538 415.655,-377.538 415.655,-377.538 417.058,-382.338 411.336,-378.8 418.46,-387.137 418.46,-387.137"/>
</g>
</g>
</svg>
