<?xml version="1.0" encoding="UTF-8" standalone="no"?>
<!DOCTYPE svg PUBLIC "-//W3C//DTD SVG 1.1//EN"
 "http://www.w3.org/Graphics/SVG/1.1/DTD/svg11.dtd">
<!-- Generated by graphviz version 2.38.0 (20140413.2041)
 -->
<!-- Title: models_diagram Pages: 1 -->
<svg width="315pt" height="369pt"
 viewBox="0.00 0.00 314.69 369.00" xmlns="http://www.w3.org/2000/svg" xmlns:xlink="http://www.w3.org/1999/xlink">
<g id="graph0" class="graph" transform="scale(1 1) rotate(0) translate(4 365)">
<title>models_diagram</title>
<polygon fill="none" stroke="none" points="-4,4 -4,-365 310.688,-365 310.688,4 -4,4"/>
<!-- _diagram_info -->
<g id="node1" class="node"><title>_diagram_info</title>
<text text-anchor="start" x="8" y="-346.6" font-family="Times,serif" font-size="13.00">Models diagram</text>
<text text-anchor="start" x="8" y="-333.6" font-family="Times,serif" font-size="13.00">Date: Aug 31 2015 &#45; 11:12</text>
<text text-anchor="start" x="8" y="-320.6" font-family="Times,serif" font-size="13.00">Migration version: 20150829212929</text>
<text text-anchor="start" x="8" y="-307.6" font-family="Times,serif" font-size="13.00">Generated by RailRoady 1.3.1</text>
<text text-anchor="start" x="8" y="-294.6" font-family="Times,serif" font-size="13.00">http://railroady.prestonlee.com</text>
</g>
<!-- Need -->
<g id="node2" class="node"><title>Need</title>
<ellipse fill="none" stroke="black" cx="197.688" cy="-18" rx="28.5325" ry="18"/>
<text text-anchor="middle" x="197.688" y="-13.8" font-family="Times,serif" font-size="14.00">Need</text>
</g>
<!-- Plan -->
<g id="node3" class="node"><title>Plan</title>
<ellipse fill="none" stroke="black" cx="252.688" cy="-234" rx="27" ry="18"/>
<text text-anchor="middle" x="252.688" y="-229.8" font-family="Times,serif" font-size="14.00">Plan</text>
</g>
<!-- Plan&#45;&gt;Need -->
<g id="edge3" class="edge"><title>Plan&#45;&gt;Need</title>
<path fill="none" stroke="#8b67e0" d="M233.301,-209.685C226.983,-200.892 220.595,-190.474 216.688,-180 199.983,-135.222 197.08,-79.0121 197.018,-46.2364"/>
<polygon fill="#8b67e0" stroke="#8b67e0" points="233.467,-209.903 235.914,-220.593 236.484,-213.89 239.502,-217.877 239.502,-217.877 239.502,-217.877 236.484,-213.89 243.09,-215.161 233.467,-209.903 233.467,-209.903"/>
<polygon fill="#8b67e0" stroke="#8b67e0" points="197.019,-46.0697 201.59,-36.1019 197.055,-41.0698 197.09,-36.0699 197.09,-36.0699 197.09,-36.0699 197.055,-41.0698 192.59,-36.0379 197.019,-46.0697 197.019,-46.0697"/>
</g>
<!-- Role -->
<g id="node4" class="node"><title>Role</title>
<ellipse fill="none" stroke="black" cx="252.688" cy="-162" rx="27" ry="18"/>
<text text-anchor="middle" x="252.688" y="-157.8" font-family="Times,serif" font-size="14.00">Role</text>
</g>
<!-- Plan&#45;&gt;Role -->
<g id="edge2" class="edge"><title>Plan&#45;&gt;Role</title>
<path fill="none" stroke="#83acc9" d="M252.688,-207.64C252.688,-202.063 252.688,-196.132 252.688,-190.476"/>
<ellipse fill="none" stroke="#83acc9" cx="252.688" cy="-211.697" rx="4" ry="4"/>
<polygon fill="#83acc9" stroke="#83acc9" points="252.688,-190.104 257.188,-180.104 252.688,-185.104 252.688,-180.104 252.688,-180.104 252.688,-180.104 252.688,-185.104 248.188,-180.104 252.688,-190.104 252.688,-190.104"/>
</g>
<!-- Task -->
<g id="node5" class="node"><title>Task</title>
<ellipse fill="none" stroke="black" cx="279.688" cy="-90" rx="27" ry="18"/>
<text text-anchor="middle" x="279.688" y="-85.8" font-family="Times,serif" font-size="14.00">Task</text>
</g>
<!-- Plan&#45;&gt;Task -->
<g id="edge1" class="edge"><title>Plan&#45;&gt;Task</title>
<path fill="none" stroke="#757058" d="M271.564,-211.543C278.354,-202.456 285.197,-191.353 288.688,-180 294.946,-159.65 291.92,-135.572 287.759,-117.595"/>
<ellipse fill="none" stroke="#757058" cx="268.909" cy="-214.923" rx="4.00002" ry="4.00002"/>
<polygon fill="#757058" stroke="#757058" points="287.729,-117.475 289.598,-106.669 286.484,-112.632 285.24,-107.789 285.24,-107.789 285.24,-107.789 286.484,-112.632 280.881,-108.909 287.729,-117.475 287.729,-117.475"/>
</g>
<!-- Role&#45;&gt;Task -->
<g id="edge4" class="edge"><title>Role&#45;&gt;Task</title>
<path fill="none" stroke="#b7e3fd" d="M262.031,-136.778C264.435,-130.544 267.035,-123.805 269.48,-117.463"/>
<ellipse fill="none" stroke="#b7e3fd" cx="260.526" cy="-140.679" rx="4.00001" ry="4.00001"/>
<polygon fill="#b7e3fd" stroke="#b7e3fd" points="269.549,-117.286 277.346,-109.576 271.348,-112.621 273.147,-107.956 273.147,-107.956 273.147,-107.956 271.348,-112.621 268.949,-106.337 269.549,-117.286 269.549,-117.286"/>
</g>
<!-- Task&#45;&gt;Need -->
<g id="edge5" class="edge"><title>Task&#45;&gt;Need</title>
<path fill="none" stroke="#0cf30a" d="M257.116,-69.7313C246.163,-60.3815 232.995,-49.1405 221.841,-39.6186"/>
<ellipse fill="none" stroke="#0cf30a" cx="260.445" cy="-72.5732" rx="4.00002" ry="4.00002"/>
<polygon fill="#0cf30a" stroke="#0cf30a" points="221.741,-39.5333 217.057,-29.6181 217.938,-36.2869 214.135,-33.0406 214.135,-33.0406 214.135,-33.0406 217.938,-36.2869 211.214,-36.4632 221.741,-39.5333 221.741,-39.5333"/>
</g>
<!-- User -->
<g id="node6" class="node"><title>User</title>
<ellipse fill="none" stroke="black" cx="252.688" cy="-324.5" rx="27" ry="18"/>
<text text-anchor="middle" x="252.688" y="-320.3" font-family="Times,serif" font-size="14.00">User</text>
</g>
<!-- User&#45;&gt;Need -->
<g id="edge8" class="edge"><title>User&#45;&gt;Need</title>
<path fill="none" stroke="#c51bcf" d="M237.985,-298.529C230.646,-285.122 222.184,-268.086 216.688,-252 190.611,-175.682 190.651,-152.593 193.688,-72 194.002,-63.6651 194.593,-54.6085 195.226,-46.379"/>
<polygon fill="#c51bcf" stroke="#c51bcf" points="238.175,-298.866 239.149,-309.788 240.624,-303.225 243.073,-307.584 243.073,-307.584 243.073,-307.584 240.624,-303.225 246.996,-305.38 238.175,-298.866 238.175,-298.866"/>
<polygon fill="#c51bcf" stroke="#c51bcf" points="195.246,-46.1338 200.548,-36.5348 195.654,-41.1505 196.063,-36.1672 196.063,-36.1672 196.063,-36.1672 195.654,-41.1505 191.578,-35.7996 195.246,-46.1338 195.246,-46.1338"/>
</g>
<!-- User&#45;&gt;Plan -->
<g id="edge6" class="edge"><title>User&#45;&gt;Plan</title>
<path fill="none" stroke="#df88f0" d="M252.688,-298.189C252.688,-286.971 252.688,-273.752 252.688,-262.311"/>
<ellipse fill="none" stroke="#df88f0" cx="252.688" cy="-302.436" rx="4" ry="4"/>
<polygon fill="#df88f0" stroke="#df88f0" points="252.688,-262.011 257.188,-252.011 252.688,-257.011 252.688,-252.011 252.688,-252.011 252.688,-252.011 252.688,-257.011 248.188,-252.011 252.688,-262.011 252.688,-262.011"/>
</g>
<!-- User&#45;&gt;Task -->
<g id="edge7" class="edge"><title>User&#45;&gt;Task</title>
<path fill="none" stroke="#251ac0" d="M267.302,-298.499C274.617,-285.084 283.084,-268.049 288.688,-252 299.463,-221.14 300.337,-212.515 303.688,-180 305.328,-164.084 307.064,-159.64 303.688,-144 301.644,-134.531 297.763,-124.718 293.708,-116.148"/>
<polygon fill="#251ac0" stroke="#251ac0" points="267.116,-298.832 258.309,-305.366 264.676,-303.197 262.237,-307.561 262.237,-307.561 262.237,-307.561 264.676,-303.197 266.165,-309.757 267.116,-298.832 267.116,-298.832"/>
<polygon fill="#251ac0" stroke="#251ac0" points="293.642,-116.017 293.165,-105.061 291.394,-111.551 289.145,-107.085 289.145,-107.085 289.145,-107.085 291.394,-111.551 285.126,-109.109 293.642,-116.017 293.642,-116.017"/>
</g>
</g>
</svg>
