<?xml version="1.0" encoding="UTF-8" standalone="no"?>
<!DOCTYPE svg PUBLIC "-//W3C//DTD SVG 1.1//EN"
 "http://www.w3.org/Graphics/SVG/1.1/DTD/svg11.dtd">
<!-- Generated by graphviz version 2.38.0 (20140413.2041)
 -->
<!-- Title: models_diagram Pages: 1 -->
<svg width="468pt" height="842pt"
 viewBox="0.00 0.00 468.19 842.00" xmlns="http://www.w3.org/2000/svg" xmlns:xlink="http://www.w3.org/1999/xlink">
<g id="graph0" class="graph" transform="scale(1 1) rotate(0) translate(4 838)">
<title>models_diagram</title>
<polygon fill="none" stroke="none" points="-4,4 -4,-838 464.193,-838 464.193,4 -4,4"/>
<!-- _diagram_info -->
<g id="node1" class="node"><title>_diagram_info</title>
<text text-anchor="start" x="8" y="-721.6" font-family="Times,serif" font-size="13.00">Models diagram</text>
<text text-anchor="start" x="8" y="-708.6" font-family="Times,serif" font-size="13.00">Date: Aug 14 2015 &#45; 20:20</text>
<text text-anchor="start" x="8" y="-695.6" font-family="Times,serif" font-size="13.00">Migration version: 20150815003448</text>
<text text-anchor="start" x="8" y="-682.6" font-family="Times,serif" font-size="13.00">Generated by RailRoady 1.3.1</text>
<text text-anchor="start" x="8" y="-669.6" font-family="Times,serif" font-size="13.00">http://railroady.prestonlee.com</text>
</g>
<!-- Need -->
<g id="node2" class="node"><title>Need</title>
<path fill="none" stroke="black" d="M244.182,-0.5C244.182,-0.5 353.193,-0.5 353.193,-0.5 359.193,-0.5 365.193,-6.5 365.193,-12.5 365.193,-12.5 365.193,-130.5 365.193,-130.5 365.193,-136.5 359.193,-142.5 353.193,-142.5 353.193,-142.5 244.182,-142.5 244.182,-142.5 238.182,-142.5 232.182,-136.5 232.182,-130.5 232.182,-130.5 232.182,-12.5 232.182,-12.5 232.182,-6.5 238.182,-0.5 244.182,-0.5"/>
<text text-anchor="middle" x="298.688" y="-127.3" font-family="Times,serif" font-size="14.00">Need</text>
<polyline fill="none" stroke="black" points="232.182,-120.5 365.193,-120.5 "/>
<text text-anchor="start" x="240.182" y="-105.3" font-family="Times,serif" font-size="14.00">id :integer</text>
<text text-anchor="start" x="240.182" y="-91.3" font-family="Times,serif" font-size="14.00">resource :string</text>
<text text-anchor="start" x="240.182" y="-77.3" font-family="Times,serif" font-size="14.00">notes :text</text>
<text text-anchor="start" x="240.182" y="-63.3" font-family="Times,serif" font-size="14.00">complete :boolean</text>
<text text-anchor="start" x="240.182" y="-49.3" font-family="Times,serif" font-size="14.00">position :integer</text>
<text text-anchor="start" x="240.182" y="-35.3" font-family="Times,serif" font-size="14.00">task_id :integer</text>
<text text-anchor="start" x="240.182" y="-21.3" font-family="Times,serif" font-size="14.00">created_at :datetime</text>
<text text-anchor="start" x="240.182" y="-7.3" font-family="Times,serif" font-size="14.00">updated_at :datetime</text>
</g>
<!-- Plan -->
<g id="node3" class="node"><title>Plan</title>
<path fill="none" stroke="black" d="M273.182,-414.5C273.182,-414.5 382.193,-414.5 382.193,-414.5 388.193,-414.5 394.193,-420.5 394.193,-426.5 394.193,-426.5 394.193,-516.5 394.193,-516.5 394.193,-522.5 388.193,-528.5 382.193,-528.5 382.193,-528.5 273.182,-528.5 273.182,-528.5 267.182,-528.5 261.182,-522.5 261.182,-516.5 261.182,-516.5 261.182,-426.5 261.182,-426.5 261.182,-420.5 267.182,-414.5 273.182,-414.5"/>
<text text-anchor="middle" x="327.688" y="-513.3" font-family="Times,serif" font-size="14.00">Plan</text>
<polyline fill="none" stroke="black" points="261.182,-506.5 394.193,-506.5 "/>
<text text-anchor="start" x="269.182" y="-491.3" font-family="Times,serif" font-size="14.00">id :integer</text>
<text text-anchor="start" x="269.182" y="-477.3" font-family="Times,serif" font-size="14.00">name :string</text>
<text text-anchor="start" x="269.182" y="-463.3" font-family="Times,serif" font-size="14.00">position :integer</text>
<text text-anchor="start" x="269.182" y="-449.3" font-family="Times,serif" font-size="14.00">user_id :integer</text>
<text text-anchor="start" x="269.182" y="-435.3" font-family="Times,serif" font-size="14.00">created_at :datetime</text>
<text text-anchor="start" x="269.182" y="-421.3" font-family="Times,serif" font-size="14.00">updated_at :datetime</text>
</g>
<!-- Plan&#45;&gt;Need -->
<g id="edge2" class="edge"><title>Plan&#45;&gt;Need</title>
<path fill="none" stroke="#49e430" d="M320.139,-404.077C319.251,-395.313 318.406,-386.445 317.688,-378 311.189,-301.636 305.982,-214.354 302.674,-152.692"/>
<polygon fill="#49e430" stroke="#49e430" points="320.166,-404.339 316.72,-414.75 320.681,-409.313 321.196,-414.286 321.196,-414.286 321.196,-414.286 320.681,-409.313 325.672,-413.822 320.166,-404.339 320.166,-404.339"/>
<polygon fill="#49e430" stroke="#49e430" points="302.671,-152.624 306.633,-142.4 302.405,-147.632 302.14,-142.639 302.14,-142.639 302.14,-142.639 302.405,-147.632 297.646,-142.878 302.671,-152.624 302.671,-152.624"/>
</g>
<!-- Task -->
<g id="node4" class="node"><title>Task</title>
<path fill="none" stroke="black" d="M339.182,-179.5C339.182,-179.5 448.193,-179.5 448.193,-179.5 454.193,-179.5 460.193,-185.5 460.193,-191.5 460.193,-191.5 460.193,-365.5 460.193,-365.5 460.193,-371.5 454.193,-377.5 448.193,-377.5 448.193,-377.5 339.182,-377.5 339.182,-377.5 333.182,-377.5 327.182,-371.5 327.182,-365.5 327.182,-365.5 327.182,-191.5 327.182,-191.5 327.182,-185.5 333.182,-179.5 339.182,-179.5"/>
<text text-anchor="middle" x="393.688" y="-362.3" font-family="Times,serif" font-size="14.00">Task</text>
<polyline fill="none" stroke="black" points="327.182,-355.5 460.193,-355.5 "/>
<text text-anchor="start" x="335.182" y="-340.3" font-family="Times,serif" font-size="14.00">id :integer</text>
<text text-anchor="start" x="335.182" y="-326.3" font-family="Times,serif" font-size="14.00">deed :string</text>
<text text-anchor="start" x="335.182" y="-312.3" font-family="Times,serif" font-size="14.00">description :text</text>
<text text-anchor="start" x="335.182" y="-298.3" font-family="Times,serif" font-size="14.00">role :string</text>
<text text-anchor="start" x="335.182" y="-284.3" font-family="Times,serif" font-size="14.00">person :string</text>
<text text-anchor="start" x="335.182" y="-270.3" font-family="Times,serif" font-size="14.00">priority :integer</text>
<text text-anchor="start" x="335.182" y="-256.3" font-family="Times,serif" font-size="14.00">position :integer</text>
<text text-anchor="start" x="335.182" y="-242.3" font-family="Times,serif" font-size="14.00">include :boolean</text>
<text text-anchor="start" x="335.182" y="-228.3" font-family="Times,serif" font-size="14.00">minutes :integer</text>
<text text-anchor="start" x="335.182" y="-214.3" font-family="Times,serif" font-size="14.00">plan_id :integer</text>
<text text-anchor="start" x="335.182" y="-200.3" font-family="Times,serif" font-size="14.00">created_at :datetime</text>
<text text-anchor="start" x="335.182" y="-186.3" font-family="Times,serif" font-size="14.00">updated_at :datetime</text>
</g>
<!-- Plan&#45;&gt;Task -->
<g id="edge1" class="edge"><title>Plan&#45;&gt;Task</title>
<path fill="none" stroke="#707cbb" d="M349.734,-406.699C351.918,-400.378 354.175,-393.848 356.459,-387.238"/>
<ellipse fill="none" stroke="#707cbb" cx="348.35" cy="-410.704" rx="4.00001" ry="4.00001"/>
<polygon fill="#707cbb" stroke="#707cbb" points="356.554,-386.964 364.073,-378.982 358.187,-382.238 359.82,-377.512 359.82,-377.512 359.82,-377.512 358.187,-382.238 355.566,-376.043 356.554,-386.964 356.554,-386.964"/>
</g>
<!-- Task&#45;&gt;Need -->
<g id="edge3" class="edge"><title>Task&#45;&gt;Need</title>
<path fill="none" stroke="#821b25" d="M344.651,-171.685C341.591,-165.081 338.539,-158.495 335.547,-152.038"/>
<ellipse fill="none" stroke="#821b25" cx="346.454" cy="-175.574" rx="4.00002" ry="4.00002"/>
<polygon fill="#821b25" stroke="#821b25" points="335.416,-151.755 335.294,-140.79 333.313,-147.219 331.211,-142.682 331.211,-142.682 331.211,-142.682 333.313,-147.219 327.128,-144.574 335.416,-151.755 335.416,-151.755"/>
</g>
<!-- User -->
<g id="node5" class="node"><title>User</title>
<path fill="none" stroke="black" d="M237.41,-565.5C237.41,-565.5 417.966,-565.5 417.966,-565.5 423.966,-565.5 429.966,-571.5 429.966,-577.5 429.966,-577.5 429.966,-821.5 429.966,-821.5 429.966,-827.5 423.966,-833.5 417.966,-833.5 417.966,-833.5 237.41,-833.5 237.41,-833.5 231.41,-833.5 225.41,-827.5 225.41,-821.5 225.41,-821.5 225.41,-577.5 225.41,-577.5 225.41,-571.5 231.41,-565.5 237.41,-565.5"/>
<text text-anchor="middle" x="327.688" y="-818.3" font-family="Times,serif" font-size="14.00">User</text>
<polyline fill="none" stroke="black" points="225.41,-811.5 429.966,-811.5 "/>
<text text-anchor="start" x="233.41" y="-796.3" font-family="Times,serif" font-size="14.00">id :integer</text>
<text text-anchor="start" x="233.41" y="-782.3" font-family="Times,serif" font-size="14.00">email :string</text>
<text text-anchor="start" x="233.41" y="-768.3" font-family="Times,serif" font-size="14.00">encrypted_password :string</text>
<text text-anchor="start" x="233.41" y="-754.3" font-family="Times,serif" font-size="14.00">reset_password_token :string</text>
<text text-anchor="start" x="233.41" y="-740.3" font-family="Times,serif" font-size="14.00">reset_password_sent_at :datetime</text>
<text text-anchor="start" x="233.41" y="-726.3" font-family="Times,serif" font-size="14.00">remember_created_at :datetime</text>
<text text-anchor="start" x="233.41" y="-712.3" font-family="Times,serif" font-size="14.00">sign_in_count :integer</text>
<text text-anchor="start" x="233.41" y="-698.3" font-family="Times,serif" font-size="14.00">current_sign_in_at :datetime</text>
<text text-anchor="start" x="233.41" y="-684.3" font-family="Times,serif" font-size="14.00">last_sign_in_at :datetime</text>
<text text-anchor="start" x="233.41" y="-670.3" font-family="Times,serif" font-size="14.00">current_sign_in_ip :inet</text>
<text text-anchor="start" x="233.41" y="-656.3" font-family="Times,serif" font-size="14.00">last_sign_in_ip :inet</text>
<text text-anchor="start" x="233.41" y="-642.3" font-family="Times,serif" font-size="14.00">first_name :string</text>
<text text-anchor="start" x="233.41" y="-628.3" font-family="Times,serif" font-size="14.00">last_name :string</text>
<text text-anchor="start" x="233.41" y="-614.3" font-family="Times,serif" font-size="14.00">organziation :string</text>
<text text-anchor="start" x="233.41" y="-600.3" font-family="Times,serif" font-size="14.00">admin :boolean</text>
<text text-anchor="start" x="233.41" y="-586.3" font-family="Times,serif" font-size="14.00">created_at :datetime</text>
<text text-anchor="start" x="233.41" y="-572.3" font-family="Times,serif" font-size="14.00">updated_at :datetime</text>
</g>
<!-- User&#45;&gt;Need -->
<g id="edge6" class="edge"><title>User&#45;&gt;Need</title>
<path fill="none" stroke="#664fcd" d="M258.684,-555.563C255.946,-546.697 253.57,-537.801 251.688,-529 223.867,-398.955 252.307,-244.421 275.469,-152.619"/>
<polygon fill="#664fcd" stroke="#664fcd" points="258.713,-555.651 257.51,-566.551 260.252,-560.409 261.791,-565.166 261.791,-565.166 261.791,-565.166 260.252,-560.409 266.073,-563.78 258.713,-555.651 258.713,-555.651"/>
<polygon fill="#664fcd" stroke="#664fcd" points="275.493,-152.525 282.336,-143.956 276.735,-147.682 277.977,-142.838 277.977,-142.838 277.977,-142.838 276.735,-147.682 273.618,-141.721 275.493,-152.525 275.493,-152.525"/>
</g>
<!-- User&#45;&gt;Plan -->
<g id="edge4" class="edge"><title>User&#45;&gt;Plan</title>
<path fill="none" stroke="#15846c" d="M327.688,-557.33C327.688,-551.087 327.688,-544.967 327.688,-539.052"/>
<ellipse fill="none" stroke="#15846c" cx="327.688" cy="-561.401" rx="4" ry="4"/>
<polygon fill="#15846c" stroke="#15846c" points="327.688,-538.645 332.188,-528.645 327.688,-533.645 327.688,-528.645 327.688,-528.645 327.688,-528.645 327.688,-533.645 323.188,-528.645 327.688,-538.645 327.688,-538.645"/>
</g>
<!-- User&#45;&gt;Task -->
<g id="edge5" class="edge"><title>User&#45;&gt;Task</title>
<path fill="none" stroke="#a41a26" d="M396.692,-555.563C399.43,-546.697 401.805,-537.801 403.688,-529 413.447,-483.379 413.234,-432.023 409.708,-387.816"/>
<polygon fill="#a41a26" stroke="#a41a26" points="396.663,-555.651 389.303,-563.78 395.123,-560.409 393.584,-565.166 393.584,-565.166 393.584,-565.166 395.123,-560.409 397.865,-566.551 396.663,-555.651 396.663,-555.651"/>
<polygon fill="#a41a26" stroke="#a41a26" points="409.688,-387.584 413.311,-377.234 409.258,-382.603 408.827,-377.622 408.827,-377.622 408.827,-377.622 409.258,-382.603 404.344,-378.009 409.688,-387.584 409.688,-387.584"/>
</g>
</g>
</svg>
