<?xml version="1.0" encoding="UTF-8" standalone="no"?>
<!DOCTYPE svg PUBLIC "-//W3C//DTD SVG 1.1//EN"
 "http://www.w3.org/Graphics/SVG/1.1/DTD/svg11.dtd">
<!-- Generated by graphviz version 2.38.0 (20140413.2041)
 -->
<!-- Title: models_diagram Pages: 1 -->
<svg width="334pt" height="297pt"
 viewBox="0.00 0.00 333.69 297.00" xmlns="http://www.w3.org/2000/svg" xmlns:xlink="http://www.w3.org/1999/xlink">
<g id="graph0" class="graph" transform="scale(1 1) rotate(0) translate(4 293)">
<title>models_diagram</title>
<polygon fill="none" stroke="none" points="-4,4 -4,-293 329.688,-293 329.688,4 -4,4"/>
<!-- _diagram_info -->
<g id="node1" class="node"><title>_diagram_info</title>
<text text-anchor="start" x="8" y="-274.6" font-family="Times,serif" font-size="13.00">Models diagram</text>
<text text-anchor="start" x="8" y="-261.6" font-family="Times,serif" font-size="13.00">Date: Aug 14 2015 &#45; 20:20</text>
<text text-anchor="start" x="8" y="-248.6" font-family="Times,serif" font-size="13.00">Migration version: 20150815003448</text>
<text text-anchor="start" x="8" y="-235.6" font-family="Times,serif" font-size="13.00">Generated by RailRoady 1.3.1</text>
<text text-anchor="start" x="8" y="-222.6" font-family="Times,serif" font-size="13.00">http://railroady.prestonlee.com</text>
</g>
<!-- Need -->
<g id="node2" class="node"><title>Need</title>
<ellipse fill="none" stroke="black" cx="243.688" cy="-18" rx="28.5325" ry="18"/>
<text text-anchor="middle" x="243.688" y="-13.8" font-family="Times,serif" font-size="14.00">Need</text>
</g>
<!-- Plan -->
<g id="node3" class="node"><title>Plan</title>
<ellipse fill="none" stroke="black" cx="252.688" cy="-162" rx="27" ry="18"/>
<text text-anchor="middle" x="252.688" y="-157.8" font-family="Times,serif" font-size="14.00">Plan</text>
</g>
<!-- Plan&#45;&gt;Need -->
<g id="edge2" class="edge"><title>Plan&#45;&gt;Need</title>
<path fill="none" stroke="#3db705" d="M250.956,-133.679C249.367,-108.599 247.023,-71.6271 245.43,-46.4929"/>
<polygon fill="#3db705" stroke="#3db705" points="250.97,-133.892 247.111,-144.156 251.286,-138.881 251.602,-143.871 251.602,-143.871 251.602,-143.871 251.286,-138.881 256.093,-143.587 250.97,-133.892 250.97,-133.892"/>
<polygon fill="#3db705" stroke="#3db705" points="245.41,-46.1692 249.268,-35.9046 245.094,-41.1793 244.777,-36.1893 244.777,-36.1893 244.777,-36.1893 245.094,-41.1793 240.286,-36.4739 245.41,-46.1692 245.41,-46.1692"/>
</g>
<!-- Task -->
<g id="node4" class="node"><title>Task</title>
<ellipse fill="none" stroke="black" cx="298.688" cy="-90" rx="27" ry="18"/>
<text text-anchor="middle" x="298.688" y="-85.8" font-family="Times,serif" font-size="14.00">Task</text>
</g>
<!-- Plan&#45;&gt;Task -->
<g id="edge1" class="edge"><title>Plan&#45;&gt;Task</title>
<path fill="none" stroke="#7ce41c" d="M267.599,-138.308C272.456,-130.917 277.865,-122.687 282.791,-115.19"/>
<ellipse fill="none" stroke="#7ce41c" cx="265.323" cy="-141.773" rx="4.00002" ry="4.00002"/>
<polygon fill="#7ce41c" stroke="#7ce41c" points="282.799,-115.178 292.052,-109.293 285.545,-111 288.291,-106.821 288.291,-106.821 288.291,-106.821 285.545,-111 284.53,-104.35 282.799,-115.178 282.799,-115.178"/>
</g>
<!-- Task&#45;&gt;Need -->
<g id="edge3" class="edge"><title>Task&#45;&gt;Need</title>
<path fill="none" stroke="#a47437" d="M281.795,-67.5007C275.608,-59.6262 268.575,-50.6748 262.25,-42.6244"/>
<ellipse fill="none" stroke="#a47437" cx="284.282" cy="-70.6658" rx="4.00002" ry="4.00002"/>
<polygon fill="#a47437" stroke="#a47437" points="262.158,-42.5072 259.518,-31.8638 259.069,-38.5756 255.979,-34.644 255.979,-34.644 255.979,-34.644 259.069,-38.5756 252.441,-37.4242 262.158,-42.5072 262.158,-42.5072"/>
</g>
<!-- User -->
<g id="node5" class="node"><title>User</title>
<ellipse fill="none" stroke="black" cx="252.688" cy="-252.5" rx="27" ry="18"/>
<text text-anchor="middle" x="252.688" y="-248.3" font-family="Times,serif" font-size="14.00">User</text>
</g>
<!-- User&#45;&gt;Need -->
<g id="edge6" class="edge"><title>User&#45;&gt;Need</title>
<path fill="none" stroke="#e7843f" d="M236.927,-227.286C229.172,-213.926 220.655,-196.699 216.688,-180 205.517,-132.974 221.212,-77.1519 232.936,-45.1236"/>
<polygon fill="#e7843f" stroke="#e7843f" points="236.937,-227.303 238.256,-238.19 239.523,-231.583 242.108,-235.863 242.108,-235.863 242.108,-235.863 239.523,-231.583 245.96,-233.536 236.937,-227.303 236.937,-227.303"/>
<polygon fill="#e7843f" stroke="#e7843f" points="233.003,-44.9469 240.769,-37.2044 234.783,-40.2746 236.564,-35.6022 236.564,-35.6022 236.564,-35.6022 234.783,-40.2746 232.359,-34 233.003,-44.9469 233.003,-44.9469"/>
</g>
<!-- User&#45;&gt;Plan -->
<g id="edge4" class="edge"><title>User&#45;&gt;Plan</title>
<path fill="none" stroke="#381746" d="M252.688,-226.189C252.688,-214.971 252.688,-201.752 252.688,-190.311"/>
<ellipse fill="none" stroke="#381746" cx="252.688" cy="-230.436" rx="4" ry="4"/>
<polygon fill="#381746" stroke="#381746" points="252.688,-190.011 257.188,-180.011 252.688,-185.011 252.688,-180.011 252.688,-180.011 252.688,-180.011 252.688,-185.011 248.188,-180.011 252.688,-190.011 252.688,-190.011"/>
</g>
<!-- User&#45;&gt;Task -->
<g id="edge5" class="edge"><title>User&#45;&gt;Task</title>
<path fill="none" stroke="#3c7e7a" d="M267.921,-226.699C275.407,-213.339 283.84,-196.293 288.688,-180 294.701,-159.788 297.149,-136.013 298.123,-118.123"/>
<polygon fill="#3c7e7a" stroke="#3c7e7a" points="267.713,-227.058 258.808,-233.457 265.208,-231.385 262.702,-235.712 262.702,-235.712 262.702,-235.712 265.208,-231.385 266.596,-237.967 267.713,-227.058 267.713,-227.058"/>
<polygon fill="#3c7e7a" stroke="#3c7e7a" points="298.124,-118.076 303.045,-108.276 298.337,-113.081 298.549,-108.085 298.549,-108.085 298.549,-108.085 298.337,-113.081 294.053,-107.894 298.124,-118.076 298.124,-118.076"/>
</g>
</g>
</svg>
